<?xml version="1.0" encoding="utf-8"?>
<!-- Generator: Adobe Illustrator 24.1.0, SVG Export Plug-In . SVG Version: 6.00 Build 0)  -->
<svg version="1.1" id="Layer_1" xmlns="http://www.w3.org/2000/svg" xmlns:xlink="http://www.w3.org/1999/xlink" x="0px" y="0px"
	 viewBox="0 0 595.3 841.9" style="enable-background:new 0 0 595.3 841.9;" xml:space="preserve">
<style type="text/css">
	.st0{fill:#FDFDFD;stroke:#000000;stroke-miterlimit:10;}
	.st1{fill:none;stroke:#ED1C24;stroke-width:6;stroke-miterlimit:10;}
	.st2{fill:#ED1C24;}
</style>
<rect x="65" y="32.9" class="st0" width="510" height="425"/>
<g>
	<g>
		<line class="st1" x1="164.7" y1="63.5" x2="164.7" y2="386.7"/>
		<line class="st1" x1="435.8" y1="386.7" x2="164.7" y2="386.7"/>
		<g>
			<line class="st1" x1="412.4" y1="349.7" x2="467.4" y2="388.7"/>
			<line class="st1" x1="467.1" y1="387.3" x2="404.4" y2="412.4"/>
		</g>
	</g>
	<g>
		<line class="st1" x1="504.2" y1="388.7" x2="500.7" y2="65.8"/>
		<line class="st1" x1="229.7" y1="68.7" x2="500.7" y2="65.8"/>
		<g>
			<line class="st1" x1="253.4" y1="105.4" x2="198.1" y2="67"/>
			<line class="st1" x1="198.4" y1="68.7" x2="260.8" y2="42.7"/>
		</g>
	</g>
	<g>
		<path class="st2" d="M271.9,153.3c10-2,24.5-3.1,38.2-3.1c21.1,0,34.8,4,44.5,12.5c7.7,6.8,12,17.4,12,29.1
			c0,20.2-12.8,33.6-29.1,39.3v0.6c12,4,18.8,15.1,22.5,31.1c5.1,21.4,8.5,36.2,12,42.2h-20.5c-2.6-4.3-6-17.7-10.3-36.8
			c-4.6-21.1-12.8-29.1-30.8-29.9h-18.8v66.7h-20V153.3H271.9z M291.8,223.4h20.2c21.1,0,34.8-11.7,34.8-29.1
			c0-20-14.3-28.5-35.3-28.8c-9.7,0-16.5,0.9-19.7,1.7L291.8,223.4L291.8,223.4z"/>
	</g>
</g>
</svg>
